<svg width="10" height="11" viewBox="0 0 10 11" fill="none" xmlns="http://www.w3.org/2000/svg">
<path d="M9.98242 10.7852L0.949219 6.08789V4.98438L9.98242 0.287109V1.625L2.47266 5.53125L9.98242 9.44727V10.7852Z" fill="#CDCDCD"/>
<path d="M9.98242 10.7852L9.52107 11.6724L10.9824 12.4323V10.7852H9.98242ZM0.949219 6.08789H-0.0507812V6.69501L0.487866 6.97511L0.949219 6.08789ZM0.949219 4.98438L0.487866 4.09716L-0.0507812 4.37725V4.98438H0.949219ZM9.98242 0.287109H10.9824V-1.36001L9.52107 -0.600107L9.98242 0.287109ZM9.98242 1.625L10.4439 2.51216L10.9824 2.23204V1.625H9.98242ZM2.47266 5.53125L2.01119 4.64409L0.307758 5.53014L2.01029 6.41794L2.47266 5.53125ZM9.98242 9.44727H10.9824V8.84093L10.4448 8.56058L9.98242 9.44727ZM10.4438 9.89794L1.41057 5.20067L0.487866 6.97511L9.52107 11.6724L10.4438 9.89794ZM1.94922 6.08789V4.98438H-0.0507812V6.08789H1.94922ZM1.41057 5.87159L10.4438 1.17433L9.52107 -0.600107L0.487866 4.09716L1.41057 5.87159ZM8.98242 0.287109V1.625H10.9824V0.287109H8.98242ZM9.52096 0.73784L2.01119 4.64409L2.93412 6.41841L10.4439 2.51216L9.52096 0.73784ZM2.01029 6.41794L9.52005 10.334L10.4448 8.56058L2.93503 4.64456L2.01029 6.41794ZM8.98242 9.44727V10.7852H10.9824V9.44727H8.98242Z" fill="black"/>
</svg>
