<svg width="33" height="19" viewBox="0 0 33 19" fill="none" xmlns="http://www.w3.org/2000/svg">
<g filter="url(#filter0_d_33720_49)">
<path d="M13.9469 10.7852L4.91367 6.08789V4.98438L13.9469 0.287109V1.625L6.43711 5.53125L13.9469 9.44727V10.7852ZM28.018 10.7852L18.9848 6.08789V4.98438L28.018 0.287109V1.625L20.5082 5.53125L28.018 9.44727V10.7852Z" fill="#CDCDCD"/>
<path d="M13.9469 10.7852L13.4855 11.6724L14.9469 12.4323V10.7852H13.9469ZM4.91367 6.08789H3.91367V6.69501L4.45232 6.97511L4.91367 6.08789ZM4.91367 4.98438L4.45232 4.09716L3.91367 4.37725V4.98438H4.91367ZM13.9469 0.287109H14.9469V-1.36001L13.4855 -0.600107L13.9469 0.287109ZM13.9469 1.625L14.4083 2.51216L14.9469 2.23204V1.625H13.9469ZM6.43711 5.53125L5.97565 4.64409L4.27221 5.53014L5.97474 6.41794L6.43711 5.53125ZM13.9469 9.44727H14.9469V8.84093L14.4092 8.56058L13.9469 9.44727ZM14.4082 9.89794L5.37502 5.20067L4.45232 6.97511L13.4855 11.6724L14.4082 9.89794ZM5.91367 6.08789V4.98438H3.91367V6.08789H5.91367ZM5.37502 5.87159L14.4082 1.17433L13.4855 -0.600107L4.45232 4.09716L5.37502 5.87159ZM12.9469 0.287109V1.625H14.9469V0.287109H12.9469ZM13.4854 0.73784L5.97565 4.64409L6.89857 6.41841L14.4083 2.51216L13.4854 0.73784ZM5.97474 6.41794L13.4845 10.334L14.4092 8.56058L6.89948 4.64456L5.97474 6.41794ZM12.9469 9.44727V10.7852H14.9469V9.44727H12.9469ZM28.018 10.7852L27.5566 11.6724L29.018 12.4323V10.7852H28.018ZM18.9848 6.08789H17.9848V6.69501L18.5234 6.97511L18.9848 6.08789ZM18.9848 4.98438L18.5234 4.09716L17.9848 4.37725V4.98438H18.9848ZM28.018 0.287109H29.018V-1.36001L27.5566 -0.600107L28.018 0.287109ZM28.018 1.625L28.4794 2.51216L29.018 2.23204V1.625H28.018ZM20.5082 5.53125L20.0467 4.64409L18.3433 5.53014L20.0458 6.41794L20.5082 5.53125ZM28.018 9.44727H29.018V8.84093L28.4803 8.56058L28.018 9.44727ZM28.4793 9.89794L19.4461 5.20067L18.5234 6.97511L27.5566 11.6724L28.4793 9.89794ZM19.9848 6.08789V4.98438H17.9848V6.08789H19.9848ZM19.4461 5.87159L28.4793 1.17433L27.5566 -0.600107L18.5234 4.09716L19.4461 5.87159ZM27.018 0.287109V1.625H29.018V0.287109H27.018ZM27.5565 0.73784L20.0467 4.64409L20.9697 6.41841L28.4794 2.51216L27.5565 0.73784ZM20.0458 6.41794L27.5556 10.334L28.4803 8.56058L20.9706 4.64456L20.0458 6.41794ZM27.018 9.44727V10.7852H29.018V9.44727H27.018Z" fill="black"/>
</g>
<defs>
<filter id="filter0_d_33720_49" x="0.913574" y="0.287109" width="31.1045" height="18.498" filterUnits="userSpaceOnUse" color-interpolation-filters="sRGB">
<feFlood flood-opacity="0" result="BackgroundImageFix"/>
<feColorMatrix in="SourceAlpha" type="matrix" values="0 0 0 0 0 0 0 0 0 0 0 0 0 0 0 0 0 0 127 0" result="hardAlpha"/>
<feOffset dy="4"/>
<feGaussianBlur stdDeviation="2"/>
<feComposite in2="hardAlpha" operator="out"/>
<feColorMatrix type="matrix" values="0 0 0 0 0 0 0 0 0 0 0 0 0 0 0 0 0 0 0.25 0"/>
<feBlend mode="normal" in2="BackgroundImageFix" result="effect1_dropShadow_33720_49"/>
<feBlend mode="normal" in="SourceGraphic" in2="effect1_dropShadow_33720_49" result="shape"/>
</filter>
</defs>
</svg>
